<svg width="800" height="800" viewBox="0 0 800 800" fill="none" xmlns="http://www.w3.org/2000/svg">
<path d="M733.75 518.75C733.75 475 795 376.25 766.25 346.25C735 313.75 662.5 452.5 626.25 452.5C582.5 452.5 556.25 398.75 535 376.25C517.5 358.75 567.5 288.75 545 283.75C451.25 261.25 438.75 316.25 387.5 302.5C347.5 292.5 306.25 286.25 266.25 286.25C116.25 286.25 87.5 393.75 61.25 493.75C56.25 508.75 207.5 637.5 207.5 637.5C207.5 637.5 92.5 572.5 95 587.5C113.75 670 191.25 722.5 278.75 742.5C303.75 748.75 330 751.25 355 751.25C515 751.25 540 627.5 626.25 612.5C678.75 603.75 735 705 765 673.75C797.5 641.25 733.75 570 733.75 518.75Z" fill="#728389"/>
<path d="M601.25 756.25C586.25 771.25 556.25 790 523.75 756.25C491.25 722.5 456.25 662.5 471.25 647.5C486.25 632.5 543.75 668.75 576.25 702.5C608.75 735 616.25 741.25 601.25 756.25Z" fill="#8D9BA3"/>
<path d="M417.5 481.25C432.688 481.25 445 463.341 445 441.25C445 419.159 432.688 401.25 417.5 401.25C402.312 401.25 390 419.159 390 441.25C390 463.341 402.312 481.25 417.5 481.25Z" fill="#8D9BA3"/>
<path d="M470 521.25C478.284 521.25 485 507.259 485 490C485 472.741 478.284 458.75 470 458.75C461.716 458.75 455 472.741 455 490C455 507.259 461.716 521.25 470 521.25Z" fill="#8D9BA3"/>
<path d="M498.75 471.25C502.892 471.25 506.25 461.736 506.25 450C506.25 438.264 502.892 428.75 498.75 428.75C494.608 428.75 491.25 438.264 491.25 450C491.25 461.736 494.608 471.25 498.75 471.25Z" fill="#8D9BA3"/>
<path d="M233.75 573.75C282.765 573.75 322.5 532.336 322.5 481.25C322.5 430.164 282.765 388.75 233.75 388.75C184.735 388.75 145 430.164 145 481.25C145 532.336 184.735 573.75 233.75 573.75Z" fill="#FCFCFA"/>
<path d="M233.75 545C267.577 545 295 516.458 295 481.25C295 446.042 267.577 417.5 233.75 417.5C199.923 417.5 172.5 446.042 172.5 481.25C172.5 516.458 199.923 545 233.75 545Z" fill="#29251C"/>
</svg>
